<svg width="636" height="515" viewBox="0 0 636 515" fill="none" xmlns="http://www.w3.org/2000/svg">
<path d="M63 54.692C63 52.5934 64.1428 50.6046 65.9684 49.5385C118.073 19.1103 158.036 4.35884 196.551 4.40276C235.023 4.44663 272.7 19.2561 320.232 49.4157C321.943 50.5017 323 52.4229 323 54.4439V442.767C323 447.299 317.991 450.347 313.791 448.084C267.626 423.209 229.8 410.413 192.055 410.316C154.293 410.219 117.137 422.833 72.3142 447.735C68.0937 450.08 63 447.02 63 442.448V54.692Z" fill="white" stroke="#A40080" stroke-width="8"/>
<path d="M319 54.2891C319 52.1906 320.143 50.2018 321.968 49.1357C374.073 18.7075 414.036 3.95601 452.551 3.99993C491.023 4.0438 528.7 18.8533 576.232 49.0128C577.943 50.0989 579 52.02 579 54.0411V442.364C579 446.896 573.991 449.945 569.791 447.681C523.626 422.806 485.8 410.01 448.055 409.913C410.293 409.816 373.137 422.431 328.314 447.332C324.094 449.677 319 446.617 319 442.045V54.2891Z" fill="#A40080" stroke="white" stroke-width="8"/>
<line x1="4" y1="514.017" x2="4" y2="250" stroke="#A40080" stroke-width="8"/>
<line x1="102" y1="108" x2="284.009" y2="108" stroke="#A40080" stroke-width="8"/>
<line x1="358" y1="108" x2="540.009" y2="108" stroke="white" stroke-width="8"/>
<line x1="358" y1="279" x2="540.009" y2="279" stroke="white" stroke-width="8"/>
<line x1="358" y1="226" x2="540.009" y2="226" stroke="white" stroke-width="8"/>
<line x1="358" y1="170" x2="540.009" y2="170" stroke="white" stroke-width="8"/>
<line x1="102" y1="334" x2="227" y2="334" stroke="#A40080" stroke-width="8"/>
<line x1="415" y1="334" x2="540" y2="334" stroke="white" stroke-width="8"/>
<line x1="102" y1="226" x2="284.009" y2="226" stroke="#A40080" stroke-width="8"/>
<line x1="102" y1="279" x2="284.009" y2="279" stroke="#A40080" stroke-width="8"/>
<line x1="102" y1="170" x2="284.009" y2="170" stroke="#A40080" stroke-width="8"/>
<line x1="632" y1="514.017" x2="632" y2="250" stroke="#A40080" stroke-width="8"/>
<path d="M5 509.995C155.999 440.315 233.341 419.988 322 509.995" stroke="#A40080" stroke-width="8"/>
<path d="M632 510.124C481.001 440.443 403.659 420.116 315 510.124" stroke="#A40080" stroke-width="8"/>
</svg>
