<svg width="301" height="272" viewBox="0 0 301 272" fill="none" xmlns="http://www.w3.org/2000/svg">
<g filter="url(#filter0_d_2_36)">
<rect x="4" width="292.292" height="178.623" rx="30" fill="white"/>
<rect x="6" y="2" width="288.292" height="174.623" rx="28" stroke="#A40080" stroke-width="4"/>
</g>
<g filter="url(#filter1_d_2_36)">
<path d="M245.628 247.95L141.621 175.375L204.139 175.375L245.628 247.95Z" fill="white"/>
<path d="M202.979 177.375L239.476 241.218L147.982 177.375L202.979 177.375Z" stroke="#A40080" stroke-width="4"/>
</g>
<path d="M225.82 228.621L121.051 156.612L184.518 155.909L225.82 228.621Z" fill="white"/>
<path d="M227.712 224.884L124.661 150.876L187.325 151.686L227.712 224.884Z" fill="white"/>
<path d="M58.6893 45.7273H71.3029L100.962 118.17H101.985L131.644 45.7273H144.257V133H134.371V66.6932H133.519L106.246 133H96.7006L69.4279 66.6932H68.5756V133H58.6893V45.7273Z" fill="#A40080"/>
<path d="M210.236 51.6128L205.237 51.6809L205.238 51.7708L205.242 51.8605L210.236 51.6128ZM210.236 22.2448L181.369 72.2448L239.104 72.2447L210.236 22.2448ZM179.138 154.637C194.709 142.085 204.429 127.903 209.872 110.828C215.268 93.9045 216.373 74.4121 215.23 51.3651L205.242 51.8605C206.363 74.4454 205.206 92.5438 200.345 107.791C195.532 122.886 187.002 135.454 172.862 146.852L179.138 154.637Z" fill="#A40080"/>
<defs>
<filter id="filter0_d_2_36" x="0" y="0" width="300.292" height="186.623" filterUnits="userSpaceOnUse" color-interpolation-filters="sRGB">
<feFlood flood-opacity="0" result="BackgroundImageFix"/>
<feColorMatrix in="SourceAlpha" type="matrix" values="0 0 0 0 0 0 0 0 0 0 0 0 0 0 0 0 0 0 127 0" result="hardAlpha"/>
<feOffset dy="4"/>
<feGaussianBlur stdDeviation="2"/>
<feComposite in2="hardAlpha" operator="out"/>
<feColorMatrix type="matrix" values="0 0 0 0 0 0 0 0 0 0 0 0 0 0 0 0 0 0 0.25 0"/>
<feBlend mode="normal" in2="BackgroundImageFix" result="effect1_dropShadow_2_36"/>
<feBlend mode="normal" in="SourceGraphic" in2="effect1_dropShadow_2_36" result="shape"/>
</filter>
<filter id="filter1_d_2_36" x="137.621" y="175.375" width="112.007" height="80.5742" filterUnits="userSpaceOnUse" color-interpolation-filters="sRGB">
<feFlood flood-opacity="0" result="BackgroundImageFix"/>
<feColorMatrix in="SourceAlpha" type="matrix" values="0 0 0 0 0 0 0 0 0 0 0 0 0 0 0 0 0 0 127 0" result="hardAlpha"/>
<feOffset dy="4"/>
<feGaussianBlur stdDeviation="2"/>
<feComposite in2="hardAlpha" operator="out"/>
<feColorMatrix type="matrix" values="0 0 0 0 0 0 0 0 0 0 0 0 0 0 0 0 0 0 0.25 0"/>
<feBlend mode="normal" in2="BackgroundImageFix" result="effect1_dropShadow_2_36"/>
<feBlend mode="normal" in="SourceGraphic" in2="effect1_dropShadow_2_36" result="shape"/>
</filter>
</defs>
</svg>
