<svg width="599" height="653" viewBox="0 0 599 653" fill="none" xmlns="http://www.w3.org/2000/svg">
<g filter="url(#filter0_d_8_214)">
<circle cx="319" cy="333" r="251" stroke="#A40080" stroke-width="50"/>
<rect x="292" width="54" height="169" fill="white"/>
<rect x="292" y="476" width="54" height="169" fill="white"/>
<rect x="135" y="67" width="54" height="169" transform="rotate(-30 135 67)" fill="white"/>
<rect x="28" y="193.765" width="54" height="169" transform="rotate(-60 28 193.765)" fill="white"/>
<rect x="54" y="519.265" width="54" height="169" transform="rotate(-120 54 519.265)" fill="white"/>
<rect x="181.765" y="622.358" width="54" height="169" transform="rotate(-150 181.765 622.358)" fill="white"/>
<rect x="4" y="360" width="54" height="169" transform="rotate(-90 4 360)" fill="white"/>
<rect x="208" y="347.284" width="40" height="118.012" transform="rotate(-45 208 347.284)" fill="#A40080"/>
<rect x="431.294" y="235.398" width="40" height="237.21" transform="rotate(45 431.294 235.398)" fill="#A40080"/>
</g>
<defs>
<filter id="filter0_d_8_214" x="0" y="0" width="599" height="653" filterUnits="userSpaceOnUse" color-interpolation-filters="sRGB">
<feFlood flood-opacity="0" result="BackgroundImageFix"/>
<feColorMatrix in="SourceAlpha" type="matrix" values="0 0 0 0 0 0 0 0 0 0 0 0 0 0 0 0 0 0 127 0" result="hardAlpha"/>
<feOffset dy="4"/>
<feGaussianBlur stdDeviation="2"/>
<feComposite in2="hardAlpha" operator="out"/>
<feColorMatrix type="matrix" values="0 0 0 0 0 0 0 0 0 0 0 0 0 0 0 0 0 0 0.25 0"/>
<feBlend mode="normal" in2="BackgroundImageFix" result="effect1_dropShadow_8_214"/>
<feBlend mode="normal" in="SourceGraphic" in2="effect1_dropShadow_8_214" result="shape"/>
</filter>
</defs>
</svg>
