<svg width="496" height="581" viewBox="0 0 496 581" fill="none" xmlns="http://www.w3.org/2000/svg">
<ellipse cx="245" cy="179.5" rx="88" ry="103.5" fill="#A40080"/>
<path d="M425 435C425 415.827 420.305 396.842 411.184 379.128C402.063 361.415 388.694 345.32 371.84 331.762C354.986 318.205 334.978 307.451 312.957 300.114C290.936 292.776 267.335 289 243.5 289C219.665 289 196.064 292.776 174.043 300.114C152.022 307.451 132.014 318.205 115.16 331.762C98.3063 345.32 84.9371 361.415 75.8159 379.128C66.6946 396.842 62 415.827 62 435L243.5 435H425Z" fill="#A40080"/>
<line x1="5" y1="2.18557e-07" x2="5" y2="100" stroke="#A40080" stroke-width="10"/>
<line y1="5" x2="100" y2="5" stroke="#A40080" stroke-width="10"/>
<line x1="496" y1="5" x2="396" y2="5" stroke="#A40080" stroke-width="10"/>
<line x1="491" x2="491" y2="100" stroke="#A40080" stroke-width="10"/>
<line x1="491" y1="520" x2="491" y2="420" stroke="#A40080" stroke-width="10"/>
<line x1="496" y1="515" x2="396" y2="515" stroke="#A40080" stroke-width="10"/>
<line x1="2.18557e-07" y1="515" x2="100" y2="515" stroke="#A40080" stroke-width="10"/>
<line x1="5" y1="520" x2="5" y2="420" stroke="#A40080" stroke-width="10"/>
</svg>
